<svg width="12.972000" height="15.935303" viewBox="0 0 12.972 15.9353" fill="none" xmlns="http://www.w3.org/2000/svg" xmlns:xlink="http://www.w3.org/1999/xlink">
	<desc>
			Created with Pixso.
	</desc>
	<defs/>
	<path id="Vector" d="M12.5589 5.43188C12.038 5.75073 11.6066 6.19653 11.3049 6.72754C11.0032 7.25879 10.8413 7.85767 10.8341 8.46826C10.8362 9.15576 11.0398 9.82739 11.4198 10.4001C11.7998 10.9729 12.3395 11.4216 12.972 11.6907C12.7226 12.4951 12.3536 13.2576 11.8772 13.9524C11.1956 14.9336 10.4829 15.9148 9.3985 15.9148C8.3141 15.9148 8.0352 15.2847 6.7855 15.2847C5.5668 15.2847 5.133 15.9353 4.1415 15.9353C3.15 15.9353 2.4581 15.0266 1.6628 13.9111C0.61227 12.3486 0.0349083 10.5161 0 8.63354C0 5.53516 2.014 3.89307 3.9969 3.89307C5.0504 3.89307 5.9283 4.58496 6.5893 4.58496C7.2193 4.58496 8.2005 3.85156 9.3985 3.85156C10.0145 3.83569 10.6249 3.97144 11.176 4.24707C11.7271 4.52271 12.202 4.92944 12.5589 5.43188ZM8.8305 2.54004C9.3586 1.9187 9.65755 1.13501 9.6774 0.320068C9.6783 0.212646 9.6679 0.105225 9.6464 0C8.73926 0.088623 7.9004 0.520996 7.3019 1.2085C6.76871 1.80493 6.4585 2.56763 6.424 3.36694C6.4244 3.46411 6.43479 3.56104 6.455 3.65601C6.52652 3.66968 6.59912 3.67651 6.6719 3.67676C7.08997 3.64355 7.49692 3.52563 7.868 3.33008C8.23908 3.13477 8.56654 2.86597 8.8305 2.54004Z" fill="#FFFFFF" fill-opacity="1.000000" fill-rule="nonzero"/>
</svg>
