<svg width="6.265564" height="12.962158" viewBox="0 0 6.26556 12.9622" fill="none" xmlns="http://www.w3.org/2000/svg" xmlns:xlink="http://www.w3.org/1999/xlink">
	<desc>
			Created with Pixso.
	</desc>
	<defs/>
	<path id="Vector" d="M0.77417 12.9622C0.560852 12.9622 0.378479 12.8882 0.227112 12.7402C0.0756836 12.5923 0 12.4116 0 12.1984C0 11.985 0.0791626 11.7992 0.237427 11.6409L4.40759 7.48108L0.237427 3.32117C0.0791626 3.16296 0 2.97717 0 2.76379C0 2.55054 0.0756836 2.36987 0.227112 2.22192C0.378479 2.07397 0.560852 2 0.77417 2C0.973755 2 1.15265 2.07227 1.31091 2.21667L6.01788 6.90295C6.18298 7.05444 6.26556 7.24707 6.26556 7.48108C6.26556 7.70129 6.18298 7.89392 6.01788 8.05908L1.31091 12.7454C1.16638 12.8899 0.987488 12.9622 0.77417 12.9622Z" fill="#0066CC" fill-opacity="1.000000" fill-rule="nonzero"/>
</svg>
