<svg width="12.939941" height="14.913086" viewBox="0 0 12.9399 14.9131" fill="none" xmlns="http://www.w3.org/2000/svg" xmlns:xlink="http://www.w3.org/1999/xlink">
	<desc>
			Created with Pixso.
	</desc>
	<defs/>
	<path id="Vector" d="M10.8235 2.96484L9.80298 2.96484C9.6936 2.15381 9.29724 1.40869 8.68579 0.86499C8.07434 0.321045 7.28821 0.0141602 6.46997 0C5.65173 0.0141602 4.86572 0.321045 4.25415 0.86499C3.6427 1.40869 3.24646 2.15381 3.13696 2.96484L2.11694 2.96484C1.55579 2.96509 1.0177 3.18823 0.620728 3.58496C0.223877 3.98169 0.000610352 4.51978 0 5.08105L0 12.7964C0.000488281 13.3577 0.223633 13.8958 0.620361 14.2925C1.01709 14.6895 1.55505 14.9126 2.11621 14.9131L10.8232 14.9131C11.3844 14.9128 11.9226 14.6895 12.3195 14.2927C12.7163 13.8958 12.9395 13.3577 12.9399 12.7964L12.9399 5.08105C12.9395 4.51978 12.7162 3.98193 12.3195 3.58521C11.9226 3.18848 11.3846 2.96533 10.8235 2.96484ZM6.46997 1.09961C6.99744 1.11108 7.50513 1.30225 7.90918 1.64136C8.31323 1.98047 8.58948 2.44727 8.69226 2.96484L4.2478 2.96484C4.35046 2.44727 4.62671 1.98047 5.03076 1.64136C5.43494 1.30225 5.94263 1.11108 6.46997 1.09961ZM11.84 12.7964C11.8397 13.0662 11.7325 13.3245 11.542 13.5151C11.3514 13.7058 11.093 13.8132 10.8234 13.8137L2.11646 13.8137C1.84692 13.8132 1.5885 13.7058 1.39807 13.5151C1.20752 13.3245 1.10034 13.0662 1.09998 12.7964L1.09998 5.08105C1.10034 4.81152 1.20752 4.55298 1.39807 4.36255C1.58875 4.17188 1.84705 4.0647 2.11658 4.06445L10.8236 4.06445C11.0931 4.0647 11.3514 4.17212 11.542 4.36255C11.7325 4.55322 11.8397 4.81152 11.84 5.08105L11.84 12.7964Z" fill="#DADADA" fill-opacity="1.000000" fill-rule="nonzero"/>
</svg>
