<svg width="14.075195" height="14.075928" viewBox="0 0 14.0752 14.0759" fill="none" xmlns="http://www.w3.org/2000/svg" xmlns:xlink="http://www.w3.org/1999/xlink">
	<desc>
			Created with Pixso.
	</desc>
	<defs/>
	<path id="Vector" d="M13.848 12.752L9.97803 8.88208C10.679 7.95288 11.1 6.80103 11.1 5.55005C11.1 2.48999 8.61096 0 5.55005 0C2.48999 0 0 2.48999 0 5.55005C0 8.61108 2.48999 11.1001 5.55005 11.1001C6.80103 11.1001 7.953 10.679 8.88196 9.97803L12.752 13.8479C12.903 13.999 13.1021 14.0759 13.3 14.0759C13.498 14.0759 13.696 14 13.848 13.8479C14.151 13.5449 14.151 13.0549 13.848 12.752ZM1.09998 5.55005C1.09998 3.09595 3.09705 1.1001 5.55005 1.1001C8.00403 1.1001 10 3.09692 10 5.55005C10 8.00293 8.00403 10 5.55005 10C3.09595 10 1.09998 8.00391 1.09998 5.55005Z" fill="#DADADA" fill-opacity="1.000000" fill-rule="nonzero"/>
</svg>
